<mxfile host="app.diagrams.net" agent="Mozilla/5.0 (Windows NT 10.0; Win64; x64) AppleWebKit/537.36 (KHTML, like Gecko) Chrome/136.0.0.0 Safari/537.36" version="26.0.14">
  <diagram id="C5RBs43oDa-KdzZeNtuy" name="Page-1">
    <mxGraphModel dx="819" dy="513" grid="1" gridSize="10" guides="1" tooltips="1" connect="1" arrows="1" fold="1" page="1" pageScale="1" pageWidth="827" pageHeight="1169" math="0" shadow="0">
      <root>
        <mxCell id="WIyWlLk6GJQsqaUBKTNV-0" />
        <mxCell id="WIyWlLk6GJQsqaUBKTNV-1" parent="WIyWlLk6GJQsqaUBKTNV-0" />
        <mxCell id="WIyWlLk6GJQsqaUBKTNV-2" value="" style="rounded=0;html=1;jettySize=auto;orthogonalLoop=1;fontSize=11;endArrow=block;endFill=0;endSize=8;strokeWidth=1;shadow=0;labelBackgroundColor=none;edgeStyle=orthogonalEdgeStyle;exitX=0.5;exitY=1;exitDx=0;exitDy=0;entryX=0.5;entryY=0;entryDx=0;entryDy=0;" parent="WIyWlLk6GJQsqaUBKTNV-1" source="WIyWlLk6GJQsqaUBKTNV-3" target="OkxJSe1mg632WjJHK9Dp-0" edge="1">
          <mxGeometry relative="1" as="geometry">
            <mxPoint x="330" y="139.99857142857135" as="sourcePoint" />
            <mxPoint x="320" y="130" as="targetPoint" />
          </mxGeometry>
        </mxCell>
        <mxCell id="WIyWlLk6GJQsqaUBKTNV-3" value="LANDING PAGE" style="rounded=1;whiteSpace=wrap;html=1;fontSize=12;glass=0;strokeWidth=1;shadow=0;" parent="WIyWlLk6GJQsqaUBKTNV-1" vertex="1">
          <mxGeometry x="250" y="60" width="140" height="30" as="geometry" />
        </mxCell>
        <mxCell id="OkxJSe1mg632WjJHK9Dp-0" value="SIGN UP" style="rounded=1;whiteSpace=wrap;html=1;" vertex="1" parent="WIyWlLk6GJQsqaUBKTNV-1">
          <mxGeometry x="150" y="139" width="120" height="30" as="geometry" />
        </mxCell>
        <mxCell id="OkxJSe1mg632WjJHK9Dp-1" value="REGISTER" style="rounded=1;whiteSpace=wrap;html=1;" vertex="1" parent="WIyWlLk6GJQsqaUBKTNV-1">
          <mxGeometry x="150" y="199" width="120" height="30" as="geometry" />
        </mxCell>
        <mxCell id="OkxJSe1mg632WjJHK9Dp-2" value="" style="rounded=0;html=1;jettySize=auto;orthogonalLoop=1;fontSize=11;endArrow=block;endFill=0;endSize=8;strokeWidth=1;shadow=0;labelBackgroundColor=none;edgeStyle=orthogonalEdgeStyle;exitX=0.5;exitY=1;exitDx=0;exitDy=0;entryX=0.5;entryY=0;entryDx=0;entryDy=0;" edge="1" parent="WIyWlLk6GJQsqaUBKTNV-1" source="OkxJSe1mg632WjJHK9Dp-0" target="OkxJSe1mg632WjJHK9Dp-1">
          <mxGeometry relative="1" as="geometry">
            <mxPoint x="310" y="149" as="sourcePoint" />
            <mxPoint x="210" y="189" as="targetPoint" />
          </mxGeometry>
        </mxCell>
        <mxCell id="OkxJSe1mg632WjJHK9Dp-4" value="PIN" style="rounded=1;whiteSpace=wrap;html=1;" vertex="1" parent="WIyWlLk6GJQsqaUBKTNV-1">
          <mxGeometry x="150" y="259" width="120" height="30" as="geometry" />
        </mxCell>
        <mxCell id="OkxJSe1mg632WjJHK9Dp-5" value="" style="rounded=0;html=1;jettySize=auto;orthogonalLoop=1;fontSize=11;endArrow=block;endFill=0;endSize=8;strokeWidth=1;shadow=0;labelBackgroundColor=none;edgeStyle=orthogonalEdgeStyle;exitX=0.5;exitY=1;exitDx=0;exitDy=0;entryX=0.5;entryY=0;entryDx=0;entryDy=0;" edge="1" parent="WIyWlLk6GJQsqaUBKTNV-1" target="OkxJSe1mg632WjJHK9Dp-4">
          <mxGeometry relative="1" as="geometry">
            <mxPoint x="210" y="229" as="sourcePoint" />
            <mxPoint x="210" y="249" as="targetPoint" />
          </mxGeometry>
        </mxCell>
        <mxCell id="OkxJSe1mg632WjJHK9Dp-6" value="SIGN IN" style="rounded=1;whiteSpace=wrap;html=1;" vertex="1" parent="WIyWlLk6GJQsqaUBKTNV-1">
          <mxGeometry x="370" y="139" width="120" height="30" as="geometry" />
        </mxCell>
        <mxCell id="OkxJSe1mg632WjJHK9Dp-7" value="LOGIN" style="rounded=1;whiteSpace=wrap;html=1;" vertex="1" parent="WIyWlLk6GJQsqaUBKTNV-1">
          <mxGeometry x="370" y="199" width="120" height="30" as="geometry" />
        </mxCell>
        <mxCell id="OkxJSe1mg632WjJHK9Dp-8" value="" style="rounded=0;html=1;jettySize=auto;orthogonalLoop=1;fontSize=11;endArrow=block;endFill=0;endSize=8;strokeWidth=1;shadow=0;labelBackgroundColor=none;edgeStyle=orthogonalEdgeStyle;exitX=0.5;exitY=1;exitDx=0;exitDy=0;entryX=0.5;entryY=0;entryDx=0;entryDy=0;" edge="1" parent="WIyWlLk6GJQsqaUBKTNV-1" source="OkxJSe1mg632WjJHK9Dp-6" target="OkxJSe1mg632WjJHK9Dp-7">
          <mxGeometry relative="1" as="geometry">
            <mxPoint x="530" y="149" as="sourcePoint" />
            <mxPoint x="430" y="189" as="targetPoint" />
          </mxGeometry>
        </mxCell>
        <mxCell id="OkxJSe1mg632WjJHK9Dp-9" value="DASHBOARD" style="rounded=1;whiteSpace=wrap;html=1;" vertex="1" parent="WIyWlLk6GJQsqaUBKTNV-1">
          <mxGeometry x="370" y="259" width="120" height="30" as="geometry" />
        </mxCell>
        <mxCell id="OkxJSe1mg632WjJHK9Dp-10" value="" style="rounded=0;html=1;jettySize=auto;orthogonalLoop=1;fontSize=11;endArrow=block;endFill=0;endSize=8;strokeWidth=1;shadow=0;labelBackgroundColor=none;edgeStyle=orthogonalEdgeStyle;exitX=0.5;exitY=1;exitDx=0;exitDy=0;entryX=0.5;entryY=0;entryDx=0;entryDy=0;" edge="1" parent="WIyWlLk6GJQsqaUBKTNV-1" target="OkxJSe1mg632WjJHK9Dp-9">
          <mxGeometry relative="1" as="geometry">
            <mxPoint x="430" y="229" as="sourcePoint" />
            <mxPoint x="430" y="249" as="targetPoint" />
          </mxGeometry>
        </mxCell>
        <mxCell id="OkxJSe1mg632WjJHK9Dp-11" value="" style="rounded=0;html=1;jettySize=auto;orthogonalLoop=1;fontSize=11;endArrow=block;endFill=0;endSize=8;strokeWidth=1;shadow=0;labelBackgroundColor=none;edgeStyle=orthogonalEdgeStyle;exitX=0.5;exitY=1;exitDx=0;exitDy=0;entryX=0.5;entryY=0;entryDx=0;entryDy=0;" edge="1" parent="WIyWlLk6GJQsqaUBKTNV-1" source="WIyWlLk6GJQsqaUBKTNV-3" target="OkxJSe1mg632WjJHK9Dp-6">
          <mxGeometry relative="1" as="geometry">
            <mxPoint x="330" y="100" as="sourcePoint" />
            <mxPoint x="220" y="149" as="targetPoint" />
          </mxGeometry>
        </mxCell>
        <mxCell id="OkxJSe1mg632WjJHK9Dp-12" value="DASHBOARD" style="rounded=1;whiteSpace=wrap;html=1;fontSize=12;glass=0;strokeWidth=1;shadow=0;" vertex="1" parent="WIyWlLk6GJQsqaUBKTNV-1">
          <mxGeometry x="50" y="430" width="140" height="30" as="geometry" />
        </mxCell>
        <mxCell id="OkxJSe1mg632WjJHK9Dp-23" value="TRANSFER" style="rounded=1;whiteSpace=wrap;html=1;" vertex="1" parent="WIyWlLk6GJQsqaUBKTNV-1">
          <mxGeometry x="270" y="430" width="120" height="30" as="geometry" />
        </mxCell>
        <mxCell id="OkxJSe1mg632WjJHK9Dp-31" value="" style="edgeStyle=orthogonalEdgeStyle;rounded=0;orthogonalLoop=1;jettySize=auto;html=1;" edge="1" parent="WIyWlLk6GJQsqaUBKTNV-1" source="OkxJSe1mg632WjJHK9Dp-24" target="OkxJSe1mg632WjJHK9Dp-30">
          <mxGeometry relative="1" as="geometry" />
        </mxCell>
        <mxCell id="OkxJSe1mg632WjJHK9Dp-24" value="HISTORY TRANSACTION" style="rounded=1;whiteSpace=wrap;html=1;" vertex="1" parent="WIyWlLk6GJQsqaUBKTNV-1">
          <mxGeometry x="270" y="480" width="120" height="40" as="geometry" />
        </mxCell>
        <mxCell id="OkxJSe1mg632WjJHK9Dp-26" value="TOP UP" style="rounded=1;whiteSpace=wrap;html=1;" vertex="1" parent="WIyWlLk6GJQsqaUBKTNV-1">
          <mxGeometry x="270" y="550" width="120" height="30" as="geometry" />
        </mxCell>
        <mxCell id="OkxJSe1mg632WjJHK9Dp-33" value="" style="edgeStyle=orthogonalEdgeStyle;rounded=0;orthogonalLoop=1;jettySize=auto;html=1;" edge="1" parent="WIyWlLk6GJQsqaUBKTNV-1" source="OkxJSe1mg632WjJHK9Dp-28" target="OkxJSe1mg632WjJHK9Dp-32">
          <mxGeometry relative="1" as="geometry" />
        </mxCell>
        <mxCell id="OkxJSe1mg632WjJHK9Dp-28" value="PROFILE" style="rounded=1;whiteSpace=wrap;html=1;" vertex="1" parent="WIyWlLk6GJQsqaUBKTNV-1">
          <mxGeometry x="270" y="600" width="120" height="30" as="geometry" />
        </mxCell>
        <mxCell id="OkxJSe1mg632WjJHK9Dp-29" value="KELUAR" style="rounded=1;whiteSpace=wrap;html=1;" vertex="1" parent="WIyWlLk6GJQsqaUBKTNV-1">
          <mxGeometry x="270" y="650" width="120" height="30" as="geometry" />
        </mxCell>
        <mxCell id="OkxJSe1mg632WjJHK9Dp-30" value="HISTORY TRANSACTION DETAIL" style="whiteSpace=wrap;html=1;rounded=1;" vertex="1" parent="WIyWlLk6GJQsqaUBKTNV-1">
          <mxGeometry x="470" y="480" width="160" height="40" as="geometry" />
        </mxCell>
        <mxCell id="OkxJSe1mg632WjJHK9Dp-32" value="CHANGE PASSWORD" style="whiteSpace=wrap;html=1;rounded=1;" vertex="1" parent="WIyWlLk6GJQsqaUBKTNV-1">
          <mxGeometry x="470" y="600" width="160" height="30" as="geometry" />
        </mxCell>
        <mxCell id="OkxJSe1mg632WjJHK9Dp-34" value="CHANGE PIN" style="whiteSpace=wrap;html=1;rounded=1;" vertex="1" parent="WIyWlLk6GJQsqaUBKTNV-1">
          <mxGeometry x="470" y="640" width="160" height="30" as="geometry" />
        </mxCell>
        <mxCell id="OkxJSe1mg632WjJHK9Dp-35" value="" style="edgeStyle=orthogonalEdgeStyle;rounded=0;orthogonalLoop=1;jettySize=auto;html=1;exitX=1;exitY=0.5;exitDx=0;exitDy=0;entryX=0;entryY=0.5;entryDx=0;entryDy=0;" edge="1" parent="WIyWlLk6GJQsqaUBKTNV-1" source="OkxJSe1mg632WjJHK9Dp-28" target="OkxJSe1mg632WjJHK9Dp-34">
          <mxGeometry relative="1" as="geometry">
            <mxPoint x="400" y="625" as="sourcePoint" />
            <mxPoint x="480" y="625" as="targetPoint" />
            <Array as="points">
              <mxPoint x="390" y="625" />
              <mxPoint x="430" y="625" />
              <mxPoint x="430" y="655" />
            </Array>
          </mxGeometry>
        </mxCell>
        <mxCell id="OkxJSe1mg632WjJHK9Dp-36" value="TRANSFER DETAIL" style="rounded=1;whiteSpace=wrap;html=1;" vertex="1" parent="WIyWlLk6GJQsqaUBKTNV-1">
          <mxGeometry x="470" y="430" width="160" height="30" as="geometry" />
        </mxCell>
        <mxCell id="OkxJSe1mg632WjJHK9Dp-37" value="" style="edgeStyle=orthogonalEdgeStyle;rounded=0;orthogonalLoop=1;jettySize=auto;html=1;" edge="1" parent="WIyWlLk6GJQsqaUBKTNV-1">
          <mxGeometry relative="1" as="geometry">
            <mxPoint x="390" y="444.71" as="sourcePoint" />
            <mxPoint x="470" y="444.71" as="targetPoint" />
          </mxGeometry>
        </mxCell>
        <mxCell id="OkxJSe1mg632WjJHK9Dp-38" value="" style="edgeStyle=orthogonalEdgeStyle;rounded=0;orthogonalLoop=1;jettySize=auto;html=1;" edge="1" parent="WIyWlLk6GJQsqaUBKTNV-1">
          <mxGeometry relative="1" as="geometry">
            <mxPoint x="190" y="444.71" as="sourcePoint" />
            <mxPoint x="270" y="444.71" as="targetPoint" />
          </mxGeometry>
        </mxCell>
      </root>
    </mxGraphModel>
  </diagram>
</mxfile>
